<svg version="1.1" xmlns="http://www.w3.org/2000/svg" xmlns:xlink="http://www.w3.org/1999/xlink" width="393.44285" height="344.4777" viewBox="0,0,393.44285,344.4777"><defs><linearGradient x1="239.99999" y1="22.03064" x2="239.99999" y2="352.23883" gradientUnits="userSpaceOnUse" id="color-1"><stop offset="0" stop-color="#ff0000"/><stop offset="1" stop-color="#000000"/></linearGradient><linearGradient x1="166.02511" y1="315.70033" x2="166.02511" y2="322.53249" gradientUnits="userSpaceOnUse" id="color-2"><stop offset="0" stop-color="#ff0000"/><stop offset="1" stop-color="#000000"/></linearGradient><linearGradient x1="180.60466" y1="316.80567" x2="180.60466" y2="321.87787" gradientUnits="userSpaceOnUse" id="color-3"><stop offset="0" stop-color="#ff0000"/><stop offset="1" stop-color="#000000"/></linearGradient><linearGradient x1="275.10279" y1="138.91363" x2="275.10279" y2="143.98583" gradientUnits="userSpaceOnUse" id="color-4"><stop offset="0" stop-color="#ff0000"/><stop offset="1" stop-color="#000000"/></linearGradient><linearGradient x1="320.56365" y1="154.10722" x2="320.56365" y2="188.02992" gradientUnits="userSpaceOnUse" id="color-5"><stop offset="0" stop-color="#ff0000"/><stop offset="1" stop-color="#000000"/></linearGradient><linearGradient x1="348.97353" y1="184.30769" x2="348.97353" y2="189.37989" gradientUnits="userSpaceOnUse" id="color-6"><stop offset="0" stop-color="#ff0000"/><stop offset="1" stop-color="#000000"/></linearGradient><linearGradient x1="348.6056" y1="165.07338" x2="348.6056" y2="170.14558" gradientUnits="userSpaceOnUse" id="color-7"><stop offset="0" stop-color="#ff0000"/><stop offset="1" stop-color="#000000"/></linearGradient><linearGradient x1="108.90229" y1="7.76115" x2="108.90229" y2="70.36977" gradientUnits="userSpaceOnUse" id="color-8"><stop offset="0" stop-color="#ff0000"/><stop offset="1" stop-color="#000000"/></linearGradient><linearGradient x1="151.75898" y1="17.24902" x2="151.75898" y2="46.85152" gradientUnits="userSpaceOnUse" id="color-9"><stop offset="0" stop-color="#ff0000"/><stop offset="1" stop-color="#000000"/></linearGradient><linearGradient x1="149.96529" y1="24.36491" x2="149.96529" y2="67.6531" gradientUnits="userSpaceOnUse" id="color-10"><stop offset="0" stop-color="#ff0000"/><stop offset="1" stop-color="#000000"/></linearGradient><linearGradient x1="133.2999" y1="52.04521" x2="133.2999" y2="61.71841" gradientUnits="userSpaceOnUse" id="color-11"><stop offset="0" stop-color="#ff0000"/><stop offset="1" stop-color="#000000"/></linearGradient><linearGradient x1="129.75205" y1="63.61628" x2="129.75205" y2="69.95938" gradientUnits="userSpaceOnUse" id="color-12"><stop offset="0" stop-color="#ff0000"/><stop offset="1" stop-color="#000000"/></linearGradient><linearGradient x1="143.47099" y1="69.43207" x2="143.47099" y2="76.41513" gradientUnits="userSpaceOnUse" id="color-13"><stop offset="0" stop-color="#ff0000"/><stop offset="1" stop-color="#000000"/></linearGradient><linearGradient x1="135.22526" y1="76.97672" x2="135.22526" y2="82.04893" gradientUnits="userSpaceOnUse" id="color-14"><stop offset="0" stop-color="#ff0000"/><stop offset="1" stop-color="#000000"/></linearGradient><linearGradient x1="273.55608" y1="81.58112" x2="273.55608" y2="86.65332" gradientUnits="userSpaceOnUse" id="color-15"><stop offset="0" stop-color="#ff0000"/><stop offset="1" stop-color="#000000"/></linearGradient><linearGradient x1="162.98788" y1="88.24356" x2="162.98788" y2="93.31577" gradientUnits="userSpaceOnUse" id="color-16"><stop offset="0" stop-color="#ff0000"/><stop offset="1" stop-color="#000000"/></linearGradient><linearGradient x1="168.09823" y1="93.21955" x2="168.09823" y2="98.58239" gradientUnits="userSpaceOnUse" id="color-17"><stop offset="0" stop-color="#ff0000"/><stop offset="1" stop-color="#000000"/></linearGradient><linearGradient x1="182.00474" y1="98.05199" x2="182.00474" y2="103.1242" gradientUnits="userSpaceOnUse" id="color-18"><stop offset="0" stop-color="#ff0000"/><stop offset="1" stop-color="#000000"/></linearGradient><linearGradient x1="194.94409" y1="101.29587" x2="194.94409" y2="106.36807" gradientUnits="userSpaceOnUse" id="color-19"><stop offset="0" stop-color="#ff0000"/><stop offset="1" stop-color="#000000"/></linearGradient><linearGradient x1="178.63558" y1="101.72437" x2="178.63558" y2="106.79657" gradientUnits="userSpaceOnUse" id="color-20"><stop offset="0" stop-color="#ff0000"/><stop offset="1" stop-color="#000000"/></linearGradient><linearGradient x1="220.33799" y1="105.12716" x2="220.33799" y2="113.19567" gradientUnits="userSpaceOnUse" id="color-21"><stop offset="0" stop-color="#ff0000"/><stop offset="1" stop-color="#000000"/></linearGradient><linearGradient x1="218.02521" y1="110.16127" x2="218.02521" y2="115.23348" gradientUnits="userSpaceOnUse" id="color-22"><stop offset="0" stop-color="#ff0000"/><stop offset="1" stop-color="#000000"/></linearGradient><linearGradient x1="284.71772" y1="126.19482" x2="284.71772" y2="131.26702" gradientUnits="userSpaceOnUse" id="color-23"><stop offset="0" stop-color="#ff0000"/><stop offset="1" stop-color="#000000"/></linearGradient><linearGradient x1="99.93925" y1="259.64698" x2="99.93925" y2="264.71919" gradientUnits="userSpaceOnUse" id="color-24"><stop offset="0" stop-color="#ff0000"/><stop offset="1" stop-color="#000000"/></linearGradient><linearGradient x1="119.01201" y1="263.93239" x2="119.01201" y2="269.86956" gradientUnits="userSpaceOnUse" id="color-25"><stop offset="0" stop-color="#ff0000"/><stop offset="1" stop-color="#000000"/></linearGradient><linearGradient x1="100.63678" y1="267.17769" x2="100.63678" y2="272.24989" gradientUnits="userSpaceOnUse" id="color-26"><stop offset="0" stop-color="#ff0000"/><stop offset="1" stop-color="#000000"/></linearGradient><linearGradient x1="170.10383" y1="267.32615" x2="170.10383" y2="272.39835" gradientUnits="userSpaceOnUse" id="color-27"><stop offset="0" stop-color="#ff0000"/><stop offset="1" stop-color="#000000"/></linearGradient><linearGradient x1="196.67762" y1="267.89637" x2="196.67762" y2="272.96857" gradientUnits="userSpaceOnUse" id="color-28"><stop offset="0" stop-color="#ff0000"/><stop offset="1" stop-color="#000000"/></linearGradient><linearGradient x1="89.03142" y1="272.07013" x2="89.03142" y2="277.14234" gradientUnits="userSpaceOnUse" id="color-29"><stop offset="0" stop-color="#ff0000"/><stop offset="1" stop-color="#000000"/></linearGradient><linearGradient x1="102.8864" y1="274.9619" x2="102.8864" y2="284.72731" gradientUnits="userSpaceOnUse" id="color-30"><stop offset="0" stop-color="#ff0000"/><stop offset="1" stop-color="#000000"/></linearGradient><linearGradient x1="153.15957" y1="275.34429" x2="153.15957" y2="280.4165" gradientUnits="userSpaceOnUse" id="color-31"><stop offset="0" stop-color="#ff0000"/><stop offset="1" stop-color="#000000"/></linearGradient><linearGradient x1="166.33295" y1="275.62798" x2="166.33295" y2="280.70019" gradientUnits="userSpaceOnUse" id="color-32"><stop offset="0" stop-color="#ff0000"/><stop offset="1" stop-color="#000000"/></linearGradient><linearGradient x1="79.48644" y1="281.93826" x2="79.48644" y2="287.66224" gradientUnits="userSpaceOnUse" id="color-33"><stop offset="0" stop-color="#ff0000"/><stop offset="1" stop-color="#000000"/></linearGradient><linearGradient x1="119.90198" y1="281.83879" x2="119.90198" y2="287.65195" gradientUnits="userSpaceOnUse" id="color-34"><stop offset="0" stop-color="#ff0000"/><stop offset="1" stop-color="#000000"/></linearGradient><linearGradient x1="108.06812" y1="284.094" x2="108.06812" y2="302.63976" gradientUnits="userSpaceOnUse" id="color-35"><stop offset="0" stop-color="#ff0000"/><stop offset="1" stop-color="#000000"/></linearGradient><linearGradient x1="114.14994" y1="287.48776" x2="114.14994" y2="292.55997" gradientUnits="userSpaceOnUse" id="color-36"><stop offset="0" stop-color="#ff0000"/><stop offset="1" stop-color="#000000"/></linearGradient><linearGradient x1="209.02814" y1="288.67379" x2="209.02814" y2="293.746" gradientUnits="userSpaceOnUse" id="color-37"><stop offset="0" stop-color="#ff0000"/><stop offset="1" stop-color="#000000"/></linearGradient><linearGradient x1="126.93647" y1="292.6922" x2="126.93647" y2="297.7644" gradientUnits="userSpaceOnUse" id="color-38"><stop offset="0" stop-color="#ff0000"/><stop offset="1" stop-color="#000000"/></linearGradient><linearGradient x1="127.55127" y1="301.71956" x2="127.55127" y2="306.79176" gradientUnits="userSpaceOnUse" id="color-39"><stop offset="0" stop-color="#ff0000"/><stop offset="1" stop-color="#000000"/></linearGradient><linearGradient x1="205.47024" y1="301.71956" x2="205.47024" y2="306.79176" gradientUnits="userSpaceOnUse" id="color-40"><stop offset="0" stop-color="#ff0000"/><stop offset="1" stop-color="#000000"/></linearGradient><linearGradient x1="140.082" y1="305.79497" x2="140.082" y2="311.96445" gradientUnits="userSpaceOnUse" id="color-41"><stop offset="0" stop-color="#ff0000"/><stop offset="1" stop-color="#000000"/></linearGradient><linearGradient x1="177.03292" y1="304.09152" x2="177.03292" y2="309.16373" gradientUnits="userSpaceOnUse" id="color-42"><stop offset="0" stop-color="#ff0000"/><stop offset="1" stop-color="#000000"/></linearGradient><linearGradient x1="218.85249" y1="306.95534" x2="218.85249" y2="313.47891" gradientUnits="userSpaceOnUse" id="color-43"><stop offset="0" stop-color="#ff0000"/><stop offset="1" stop-color="#000000"/></linearGradient></defs><g transform="translate(-43.27858,-7.76115)"><g data-paper-data="{&quot;isPaintingLayer&quot;:true}" fill-rule="nonzero" stroke="none" stroke-width="1" stroke-linecap="butt" stroke-linejoin="miter" stroke-miterlimit="10" stroke-dasharray="" stroke-dashoffset="0" style="mix-blend-mode: normal"><g><path d="M203.58393,316.62099c-0.30687,-0.24539 -0.48571,-0.46106 -0.48571,-0.62419c0,-1.06734 5.21834,-3.20213 9.96222,-4.0323c2.60914,-0.59299 4.26953,-0.35576 4.26953,0.35576c0,1.89761 8.42042,2.96496 9.96222,1.30457c0.94876,-0.94876 0.94876,-1.54175 -0.23718,-1.89756c-2.37192,-0.83017 -0.35576,-2.72778 2.96496,-2.72778c2.60914,0 2.84637,-0.23713 1.42316,-1.89756c-1.67879,-2.12642 -8.3215,-5.62592 -14.64574,-7.907c0.23447,-0.30572 0.46177,-0.61477 0.68088,-0.92755c9.97642,1.69375 10.2212,1.43082 10.76278,-1.60197c0.4744,-2.37192 -0.11859,-3.67654 -2.13474,-5.33687c-3.32072,-2.60914 -3.67654,-4.26953 -0.71158,-3.20213c1.06734,0.35576 0.4744,-0.59299 -1.5418,-2.25333c-0.99305,-0.80684 -2.31085,-1.64615 -3.57952,-2.31397c-0.10691,-2.2616 -0.3232,-4.50577 -1.89135,-5.90072c-3.512,-3.12411 -6.76151,-4.57421 -10.09803,-5.24944c-0.55444,-0.26432 -1.26851,-0.56862 -2.10216,-0.8862c-2.60914,-0.94876 -4.86252,-1.42316 -5.21829,-1.06734c-0.35576,0.35576 -1.30457,-0.4744 -2.25333,-1.77897c-1.30457,-1.77897 -3.08355,-2.37192 -6.99726,-2.37192c-3.32072,0 -5.09975,0.47445 -4.62534,1.18598c0.4744,0.71158 1.30462,0.94876 1.89761,0.4744c1.66039,-1.06734 4.62529,1.77892 3.79513,3.79513c-0.00507,0.01351 -0.01001,0.02699 -0.01484,0.04045c-3.79685,-0.00469 -7.59334,-0.00295 -11.38951,0.00473c-0.23894,-0.05714 -0.47018,-0.11182 -0.69261,-0.16372c-1.99873,-0.53298 -3.88517,-1.14083 -5.2178,-1.67637c-0.51256,-0.29117 -1.05031,-0.55283 -1.60604,-0.78193c-0.14482,-0.09921 -0.24419,-0.18972 -0.29206,-0.26949c-0.35576,-0.59299 -1.77892,-0.94876 -3.08355,-0.71158c-0.04058,0.00725 -0.08272,0.01403 -0.12638,0.02037c-1.16115,-0.16715 -2.33574,-0.18889 -3.47138,-0.04295c-5.29876,-0.45321 -13.66866,-2.17088 -14.31053,-3.17955c-0.35576,-0.59299 -2.72778,-1.06734 -5.33687,-1.06734c-2.72778,0 -4.50671,0.47445 -4.0323,1.18598c0.35576,0.59299 -1.89761,0.35576 -4.98116,-0.59304c-6.76008,-2.13474 -6.28568,-2.01615 -6.28568,-0.83017c0,0.59299 2.13474,1.66039 4.74388,2.4905c2.4905,0.71158 4.98116,1.89761 5.33692,2.4905c0.35576,0.59299 -1.06739,0.4744 -3.20213,-0.23718c-2.13474,-0.71158 -7.1159,-2.13474 -11.02961,-3.20213c-9.48781,-2.72778 -16.2479,-5.81128 -13.04576,-5.92986c2.13474,-0.11859 2.13474,-0.35582 -0.59299,-2.49055c-1.66039,-1.18598 -2.4905,-2.60914 -2.01615,-3.0835c0.4744,-0.4744 1.5418,0 2.37192,0.94876c0.71158,1.06734 3.20213,2.25338 5.21829,2.72778c3.32072,0.59299 3.79513,0.4744 3.20213,-1.06739c-0.35576,-1.06734 -1.42321,-1.89756 -2.25338,-1.89756c-0.71158,0 -2.37192,-1.06734 -3.5579,-2.37192c-1.18598,-1.30457 -2.84637,-2.37192 -3.67654,-2.37192c-2.37192,0 -7.94607,-2.37197 -7.35307,-3.08355c0.35576,-0.23718 2.96496,0.23718 5.81133,1.18598c6.99726,2.4905 9.48781,2.4905 6.40427,-0.11859c-2.25333,-1.77897 -2.25333,-1.77892 0.83022,-1.06734c4.38812,0.94876 5.33687,-1.18598 1.42316,-3.20213c-3.08355,-1.5418 -3.0835,-1.66039 -0.59299,-2.37192c1.30457,-0.35576 2.84637,-0.11859 3.20213,0.4744c0.35576,0.59299 2.13474,1.06734 4.15094,1.06734c4.26953,0 4.74388,-3.20213 0.4744,-4.26953c-1.66039,-0.35576 -2.96496,-1.30462 -2.96496,-2.0162c0,-0.71158 2.96496,-0.94876 8.30183,-0.4744c4.62529,0.35576 8.30183,0.4744 8.30183,0.23718c0,-0.11859 -1.77892,-1.42316 -3.79513,-2.84632c-3.79513,-2.37192 -3.79513,-2.49055 -0.94881,-2.49055l2.96496,-0.11859l-2.84637,-1.54175l-2.96491,-1.66039l4.0323,-0.83022l3.91371,-0.83017l-2.60914,-2.01615c-3.32072,-2.4905 -2.0162,-3.91371 2.13474,-2.25338c1.66039,0.59299 6.28568,1.42316 10.19944,1.66039c3.91371,0.35576 7.82748,0.83017 8.65765,1.06734c1.18598,0.4744 1.18598,0 0.11859,-1.89756c-0.71158,-1.42316 -1.06734,-3.43936 -0.71158,-4.62529c0.23718,-1.06734 -0.00005,-2.96496 -0.59304,-4.0323c-0.83017,-1.5418 -0.71158,-2.0162 0.47445,-1.77897c3.08355,0.35576 4.62529,-0.11859 3.79513,-1.42316c-0.35576,-0.71158 -2.25333,-1.06734 -4.15094,-0.59299c-2.72778,0.4744 -3.20213,0.23718 -2.60914,-1.30457c0.59299,-1.5418 2.25333,-1.77892 11.50397,-0.94876c18.02687,1.42316 16.7223,1.5418 16.36649,-1.5418c-0.35576,-2.13474 0.23718,-2.60914 2.60914,-2.60914c3.43936,0 3.91371,-0.94876 1.42316,-2.84637c-1.5418,-1.06734 -1.42316,-1.89761 0.59299,-5.92992c2.84637,-5.92992 2.84637,-10.31798 -0.11859,-13.75734c-1.30457,-1.5418 -2.37192,-4.15094 -2.37192,-5.81128c0,-1.66039 -0.35576,-4.98116 -0.71158,-7.35307c-0.59299,-3.79513 -1.06734,-4.15094 -4.98111,-4.38812c-2.4905,-0.11859 -6.87867,-0.83022 -10.08086,-1.5418c-5.21829,-1.18598 -5.69274,-1.06734 -7.94607,1.42316c-1.30457,1.5418 -2.25333,3.20213 -2.37192,3.67654c0,1.30457 -6.76008,4.50671 -9.48781,4.50671c-1.30457,0 -2.72778,-0.83017 -3.08355,-1.77892c-1.06734,-2.4905 8.42042,-17.67106 14.58751,-23.48238c4.74388,-4.38812 4.98116,-4.98111 3.20213,-6.87867c-0.94876,-1.06734 -1.66039,-3.55795 -1.42316,-5.33687c0.35576,-3.20213 -0.35576,-3.79513 -11.14815,-9.25059c-9.48781,-4.86252 -11.62265,-6.52291 -12.2156,-9.132c-0.4744,-2.25333 -2.72773,-4.62534 -7.11585,-7.47166c-3.43936,-2.37192 -7.23449,-5.92992 -8.53906,-8.06465c-1.5418,-2.4905 -4.0323,-4.50671 -6.99726,-5.5741c-2.4905,-0.94876 -6.99726,-3.79513 -9.96217,-6.28568c-6.76008,-5.92992 -18.38269,-12.45277 -27.04028,-15.1805c-3.67654,-1.18598 -12.33418,-4.86252 -19.21286,-8.18324c-6.87867,-3.32072 -13.28294,-6.04845 -14.35033,-6.04845c-2.96496,0 -5.33687,-3.43936 -3.91371,-5.5741c0.59299,-0.94876 5.09975,-3.08355 9.96222,-4.74388c8.65765,-2.84637 9.13205,-2.84637 17.90828,-1.06734c14.58751,2.84637 21.34759,5.21834 29.29366,10.08086c6.28568,3.79513 7.1159,4.62534 4.98111,5.21829c-1.42316,0.35576 -4.38812,-0.35576 -6.87862,-1.77897l-4.38812,-2.37192l2.96496,2.4905c1.66039,1.30457 3.32072,2.4905 3.79513,2.4905c0.4744,0 0.59299,0.71163 0.23718,1.5418c-0.4744,1.42316 3.67654,5.45546 8.65765,8.30183c1.77897,1.06734 -1.66039,-5.92992 -3.43936,-6.99726c-0.83017,-0.4744 -0.94876,-0.23713 -0.4744,0.47445c0.4744,0.83017 0.35576,1.42316 -0.35576,1.42316c-2.0162,0 -2.60914,-2.13474 -0.71158,-2.84632c0.94876,-0.35576 4.15094,0.94876 6.99726,2.84632c2.84637,1.89761 7.59025,4.50671 10.43657,5.81133c5.81133,2.4905 8.30183,4.86252 5.0997,4.86252c-1.42316,0 -1.66034,0.4744 -0.59299,2.25333c0.83017,1.66039 0.71158,2.4905 -0.35576,2.84637c-0.71158,0.23718 0.47445,1.42316 2.72778,2.60914c3.08355,1.5418 3.79513,1.66039 2.72778,0.35576c-0.94876,-1.18598 -1.18598,-2.84637 -0.4744,-5.21829c0.59299,-1.89761 1.18603,-2.60914 1.18603,-1.66039c0.11859,1.30457 15.41768,10.55521 21.46618,12.80854c0.4744,0.23718 1.18598,-0.83017 1.5418,-2.25333c0.35576,-1.42316 1.42321,-2.25333 2.25338,-2.01615c2.13474,0.71158 2.25333,8.30183 0.11859,10.08081c-0.94876,0.71158 -1.18598,1.66039 -0.4744,2.0162c0.59299,0.4744 1.42316,0.23713 1.89761,-0.47445c0.35576,-0.59299 1.77892,-1.18598 3.20208,-1.18598c2.0162,0 2.13479,0.23718 0.94876,1.77897c-1.30457,1.5418 -1.06734,1.77892 1.30462,1.54175c2.25333,-0.23718 2.84637,0.11859 2.60914,2.13479c-0.23718,2.25333 0.35576,2.49055 4.50671,2.49055c2.84637,0 5.5741,0.83017 6.76008,2.0162c1.06734,1.06734 1.42316,1.89756 0.71158,1.89756c-0.71158,0 -1.30457,0.71163 -1.30457,1.66039c0,0.94876 2.60914,2.84637 5.69269,4.0323l5.5741,2.37192l4.74388,-6.40427l-4.0323,-2.72778c-2.25333,-1.5418 -4.0323,-3.20213 -4.0323,-3.79513c0,-0.59299 -0.71163,-0.71158 -1.66039,-0.35576c-0.94876,0.35576 -2.01615,0.11859 -2.4905,-0.59299c-0.4744,-0.83017 0.4744,-1.30457 2.4905,-1.30457c2.13474,0 4.74393,1.42316 7.23449,3.79513c2.96496,2.84637 3.91371,3.32072 3.91371,1.77897c0,-1.06734 1.66034,-2.84637 3.67654,-3.79513c3.43936,-1.89761 3.67654,-1.77897 7.70884,1.66039c2.25333,2.0162 4.98111,3.67654 5.92986,3.67654c0.94876,0 1.54175,0.4744 1.06734,1.18598c-0.35576,0.59299 0.83017,2.0162 2.60914,3.08355c1.77897,1.18598 3.91376,2.84637 4.62534,3.67654c1.42316,1.66039 5.69274,0.83017 4.50671,-0.94876c-0.35576,-0.59299 0,-1.06734 0.71158,-1.06734c0.71158,0 1.06739,-0.47445 0.71163,-0.94881c-0.35576,-0.59299 0.11859,-1.06734 1.06734,-1.06734c2.37192,0 3.20213,2.96496 1.30457,4.0323c-0.94876,0.59299 -1.89761,2.01615 -2.13479,3.32072c-0.23718,1.66039 0.35576,2.49055 2.25338,2.72778c2.0162,0.35576 2.4905,-0.11859 2.01615,-1.30457c-0.35576,-0.94876 -0.11859,-2.13474 0.59299,-2.60914c1.77897,-1.06734 1.66039,-4.98116 -0.11859,-5.69274c-1.18598,-0.4744 -1.18598,-0.71158 -0.11859,-0.71158c0.71158,-0.11859 1.77892,0.35576 2.13474,1.06734c0.35576,0.59299 1.66039,1.18603 2.84637,1.18603c1.77897,0 2.25338,-1.42316 2.84637,-9.84363c0.4744,-5.33687 0.4744,-12.68995 0,-16.2479c-0.94876,-8.30183 -9.72504,-27.63327 -15.1805,-33.20743c-4.62529,-4.74388 -4.86252,-6.40427 -2.84637,-17.78965c1.66039,-9.60645 4.0323,-15.41773 6.40432,-15.41773c0.94876,0 1.77892,-0.47445 1.77892,-1.06734c0,-0.59299 1.30457,-0.94876 2.96496,-0.83017c1.66039,0 2.96496,0.4744 2.96496,0.94876c0,0.4744 1.42316,0.35576 3.08355,-0.23718c4.50671,-1.77897 9.96222,-1.42321 10.6738,0.59299c0.4744,0.94876 1.42316,1.77897 2.25333,1.77897c1.06734,0 1.66039,5.45551 2.13479,22.17781c0.59299,21.70336 0.71163,22.65217 5.45546,38.78142c2.72778,9.01341 4.86252,18.14546 4.86252,20.2802c0,2.13474 0.35576,5.45546 0.71163,7.47161c0.71158,3.20213 1.06734,3.43936 2.96491,2.25338c3.08355,-1.89761 5.69274,0.59299 3.43936,3.32072c-1.18598,1.42316 -1.77897,1.5418 -3.32072,0.35576c-1.5418,-1.30457 -1.66034,-1.18598 -1.18598,0.23718c0.23718,0.94876 1.54175,1.77897 2.84637,1.77897c1.18598,0.11859 2.13479,0.83017 1.89761,1.66034c-0.11859,0.83017 0.23718,1.18598 0.83017,0.71158c0.71158,-0.35576 0.94881,-1.42316 0.47445,-2.37192c-0.35576,-1.30457 -0.11859,-1.54175 1.18598,-1.06734c1.06734,0.35576 2.13474,1.42316 2.4905,2.37192c0.35576,0.94876 1.42321,1.66039 2.37197,1.66039c0.83017,0 1.89756,1.18598 2.37192,2.60914c1.06734,4.0323 0.83017,5.69269 -0.59299,5.69269c-0.59299,0 -0.94876,-0.47445 -0.59299,-1.06734c0.35576,-0.59299 -1.06734,-1.66039 -3.20208,-2.37192l-3.79513,-1.30457l4.15094,3.5579c4.0323,3.32072 4.15094,3.32072 5.21829,1.06739c0.59299,-1.30457 1.77897,-2.13479 2.60914,-1.77897c0.94876,0.35576 1.89756,0.11859 2.25333,-0.4744c0.4744,-0.71158 1.77892,-1.18598 3.0835,-1.18598c1.18598,0 2.25338,-0.83022 2.25338,-1.77897c0,-0.94876 -0.83017,-1.77897 -1.77892,-1.77897c-0.94876,0 -3.79513,-1.06734 -6.16709,-2.37192c-2.4905,-1.30457 -5.33687,-2.37192 -6.40432,-2.37192c-2.72778,0 -5.33687,-3.08355 -3.20208,-3.79513c1.77897,-0.59299 -0.59304,-3.43931 -4.38812,-5.0997c-2.0162,-0.83017 -2.13479,-1.06734 -0.35576,-1.42316c2.4905,-0.59299 6.87867,3.08355 6.87867,5.81133c0,1.06734 0.59299,2.37192 1.18598,2.72773c0.71158,0.35576 1.18603,-0.35576 1.18603,-1.66034c0,-3.32072 1.77892,-4.0323 6.28568,-2.60914c0.26517,0.09358 0.59603,0.1933 0.98167,0.29759c3.25478,3.46954 7.13883,6.93675 11.70903,10.39594c6.47746,4.90274 51.14193,-7.34587 55.36191,-7.50991c11.415,-0.44367 23.30288,3.15948 35.14369,6.62856c2.96775,12.31973 8.81417,24.39939 17.63469,35.06441c5.73164,6.93021 19.40215,4.6399 26.3037,8.70248c0.82647,0.48648 1.89325,2.38926 3.11378,5.15199c-0.03794,62.45097 -0.14806,111.67455 -0.3303,144.83358c-1.88316,4.62824 -3.22313,9.3325 -5.14656,14.9447c-6.18657,18.05041 -33.97931,15.9391 -48.55688,17.28572c-64.40991,5.94985 -84.50264,-20.13524 -139.34368,-25.74185c-19.95172,-6.67558 -27.27376,-9.52114 -39.7595,-8.9988zM290.38626,132.40746c0,0.11859 -1.5418,0.47445 -3.32072,0.71163c-1.66039,0.23718 -3.43936,1.18598 -3.79513,2.13474c-0.35576,1.18598 0,1.42316 1.42316,0.94876c1.06734,-0.35576 1.66039,-0.35576 1.30457,0c-0.71158,0.94876 -34.63053,1.5418 -38.42566,0.71163c-1.77897,-0.35576 -2.49055,0.23718 -2.60914,2.4905c-0.23718,2.13474 -0.11854,2.37192 0.59304,0.94876c0.71158,-1.66039 2.60914,-1.18598 15.65486,4.0323c10.91102,4.38812 15.77354,5.69274 18.61986,5.33687c2.4905,-0.4744 4.26953,-0.11859 5.21829,1.06739c0.71158,0.94876 1.77897,1.66034 2.37197,1.66034c0.59299,0 3.91371,1.77897 7.35307,4.0323c3.32072,2.13474 8.53906,5.33687 11.50397,6.99726c2.96491,1.66039 6.40427,3.91371 7.70884,4.98111c2.25333,1.77897 2.25333,1.89761 -0.59304,0.35576c-1.66034,-0.83017 -3.20213,-1.5418 -3.55795,-1.5418c-0.35576,0 -1.89756,-0.83017 -3.55795,-1.66034c-3.43936,-1.77897 5.21829,6.40427 12.80854,11.97837c2.72778,2.0162 4.98111,4.74388 4.98111,5.92986c0,1.66039 0.94876,2.13479 4.15094,2.13479c4.15094,0 10.08081,2.13474 10.08081,3.67654c0,0.4744 2.25333,1.66034 4.98111,2.84637c2.72778,1.06734 6.28568,3.20213 7.70884,4.74393c3.08355,2.96496 8.65765,4.50671 10.43657,2.84632c0.59299,-0.71158 0.59299,-1.06734 -0.35576,-1.06734c-0.71158,0 -2.72778,-2.4905 -4.50671,-5.69269c-4.15094,-7.1159 -13.6387,-18.50128 -19.21286,-23.24516c-2.4905,-2.0162 -5.81128,-4.98111 -7.47161,-6.52291c-1.77892,-1.66039 -10.19939,-5.21829 -21.70336,-9.132c-10.31798,-3.43936 -19.45003,-6.87867 -20.16161,-7.59025c-0.83017,-0.59299 -1.77897,-0.94876 -2.0162,-0.59299c-0.35576,0.23718 -1.18598,-0.59299 -2.01615,-1.77897c-0.83017,-1.30457 -0.94876,-2.37192 -0.35576,-2.37192c0.59299,0 1.42316,0.71163 1.77897,1.42316c0.35576,0.83017 0.59299,0.11859 0.35576,-1.66039c-0.35576,-2.4905 0.11859,-3.32072 2.25333,-3.79513c2.0162,-0.59299 2.60914,-1.30457 2.01615,-2.84637c-0.71158,-1.77897 -0.59299,-1.89756 1.5418,-0.23718c2.13474,1.66039 2.13479,1.66034 0.59299,-0.35576c-0.83017,-1.06734 -1.66039,-1.89761 -1.77897,-1.89761zM348.73631,151.85749c-4.86252,3.32072 -8.42042,9.36923 -7.47166,12.92712c0.35576,1.42316 0.23718,1.89756 -0.11859,1.06734c-0.71158,-1.66039 -4.0323,-0.71158 -4.0323,1.18603c0,0.71158 0.35576,0.83017 0.71163,0.4744c0.4744,-0.35576 2.37192,1.42316 4.26953,4.15094c2.72778,3.67654 3.79513,4.38812 4.62529,3.20213c0.71158,-1.30457 1.30457,-1.30457 2.4905,-0.11859c0.71158,0.71158 1.06739,1.42316 0.59304,1.42316c-0.59299,0 0.83017,2.4905 2.84632,5.5741c2.13474,3.08355 4.15094,4.86252 4.38812,4.0323c1.06739,-3.32072 -4.38807,-19.45003 -7.47161,-21.70336c-0.83017,-0.59299 -0.83017,-0.94876 0,-0.94876c0.71158,0 0.35576,-0.59304 -0.59304,-1.18603c-1.18603,-0.71158 -1.30462,-1.18598 -0.23718,-1.18598c0.83017,0 1.54175,-1.77897 1.54175,-4.50671c0.11859,-2.96496 0.35576,-3.43931 0.71158,-1.54175l0.59304,2.72778l1.66034,-2.4905c1.06739,-1.42316 2.60914,-2.49055 3.55795,-2.49055c0.94876,0 1.66034,-0.83022 1.66034,-1.77897c0,-2.72778 -4.86252,-2.13474 -9.72499,1.18603zM263.34593,121.85225c-0.23718,0.11859 -4.38812,0.4744 -9.25059,0.94876c-10.55516,0.94876 -20.16161,3.43931 -20.16161,5.45546c0,2.13474 3.08355,2.4905 15.77349,1.89761c9.01341,-0.35576 11.26679,-0.83017 10.31803,-2.0162c-0.94876,-1.06734 -0.4744,-1.30457 1.77892,-0.83017c2.13474,0.35576 2.96496,0 2.96496,-1.18598c0,-1.30457 -0.94876,-1.66034 -3.20213,-1.30457c-3.08355,0.35576 -3.20213,0.35576 -0.59299,-0.71163c1.42316,-0.71158 2.60914,-1.54175 2.60914,-1.89756c0,-0.35576 -0.11859,-0.4744 -0.23718,-0.35576zM384.79005,193.72251c-2.60914,0.35576 -2.72778,0.4744 -0.59299,2.01615c1.18603,0.94876 3.0835,1.77897 4.38812,1.77897c1.18603,0 4.50676,1.5418 7.47166,3.55795c6.0485,4.15094 6.99726,4.26948 7.94607,1.54175c0.71158,-1.89761 -0.94881,-3.91371 -3.32072,-3.91371c-0.59299,0 -2.01615,-0.83017 -3.20213,-1.89756c-2.37192,-2.13474 -8.77623,-3.67654 -12.68995,-3.08355zM369.49091,208.42861c0.23718,0.83017 1.42316,1.5418 2.72778,1.5418c1.18603,0 2.25333,0.59304 2.25333,1.30457c0,1.5418 5.45546,6.28568 10.91102,9.36923c2.01615,1.18598 5.69274,4.74388 8.18324,7.94607c2.84637,3.79513 4.74388,5.45546 5.5741,4.62534c1.30462,-1.30457 0,-4.0323 -1.66034,-3.08355c-0.59299,0.4744 -1.06734,0.23718 -1.06734,-0.23718c0,-0.59299 -1.30462,-2.37192 -2.84637,-4.15094c-1.66034,-1.66039 -2.60914,-3.43936 -2.13474,-4.0323c0.4744,-0.4744 0.23718,-0.4744 -0.4744,-0.11859c-0.71158,0.4744 -2.37192,-0.35576 -3.55795,-1.77892c-1.30462,-1.30457 -4.86252,-4.38812 -8.18324,-6.87867c-6.87862,-4.98111 -10.55521,-6.6415 -9.72504,-4.50671zM401.15654,227.16706c0,0.59299 0.4744,1.18598 1.06734,1.18598c1.30462,0 0.11859,10.79244 -1.54175,13.04581c-0.59299,0.94876 0.23718,0.4744 2.01615,-1.18603c2.72778,-2.37192 3.20213,-3.5579 2.72778,-7.11585c-0.35576,-2.25333 -0.59299,-4.86252 -0.71158,-5.69274c0,-1.66039 -3.55795,-2.0162 -3.55795,-0.23718zM247.33526,133.47485h-5.0997c-4.98111,0 -5.0997,0 -2.96496,2.37197c1.18598,1.30457 2.25333,2.37192 2.37192,2.37192c0.11859,0 1.42316,-1.06734 2.96496,-2.37192zM260.97396,131.22148c-0.23718,0.11859 -3.32072,1.06734 -6.87867,2.25333c-3.55795,1.18598 -5.45546,2.13479 -4.15094,2.25338c3.55795,0.11859 11.26674,-2.25338 11.26674,-3.43936c0,-0.71158 -0.11859,-1.18598 -0.23718,-1.06734zM414.79529,229.53903c-2.13474,0.11859 -2.0162,0.23718 0.59299,1.77897c3.32072,1.89761 7.1159,2.25333 7.1159,0.71158c0,-0.59299 -1.18598,-1.30457 -2.60914,-1.77892c-1.54175,-0.35576 -3.79513,-0.71158 -5.0997,-0.71158zM311.02223,145.21605c0,0.94876 6.16709,2.72773 6.99726,1.89756c0.11859,-0.23718 0,-0.94876 -0.4744,-1.66034c-0.94876,-1.5418 -6.52291,-1.77897 -6.52291,-0.23718zM123.63776,259.90003c-2.72778,-0.4744 -3.67654,-0.35576 -2.84637,0.4744c0.59299,0.59299 2.96496,1.5418 5.21829,1.89761c2.72778,0.4744 3.79513,0.35576 2.96496,-0.35576c-0.59299,-0.71158 -3.08355,-1.54175 -5.33692,-2.01615zM181.9879,269.26931c1.18598,1.30457 8.06465,2.72778 8.06465,1.77897c0,-0.4744 -1.18598,-1.18598 -2.60914,-1.66039c-3.43936,-0.83017 -6.28568,-0.94876 -5.45546,-0.11859zM153.643,100.26743c-2.37192,0 -0.94876,1.89761 2.0162,2.72778c2.0162,0.4744 2.25333,0.35576 1.06734,-1.06734c-0.71158,-0.94876 -2.13479,-1.66039 -3.08355,-1.66039zM414.91388,205.81952c-0.94876,0 -2.13474,0.47445 -2.4905,1.18598c-0.35576,0.59299 0.35576,1.18598 1.66039,1.18598c1.42321,0 2.4905,-0.59299 2.4905,-1.18598c0,-0.71158 -0.71163,-1.18598 -1.66039,-1.18598zM286.47245,118.05712c-1.54177,0.00001 -2.72773,0.47446 -2.72773,1.18598c0,1.5418 1.30457,1.5418 3.5579,0c1.42315,-0.94875 1.30457,-1.18598 -0.83012,-1.18598zM367.5934,200.83841c-0.35576,-0.83017 -0.71163,-0.35576 -0.71163,1.06734c-0.11859,1.42316 -1.06734,2.84637 -2.13474,3.08355c-2.01615,0.4744 -2.01615,0.59299 0,0.71158c1.18603,0 2.37192,-0.71163 2.72778,-1.66039c0.35576,-0.94876 0.47445,-2.37192 0.11859,-3.20208zM355.49634,204.63349c0.35576,0.59299 1.66034,1.18598 2.72778,1.18598c1.77892,0 1.77892,-0.23718 0.23718,-1.18598c-2.37192,-1.5418 -3.91371,-1.5418 -2.96496,0zM247.21662,142.96267c-0.35576,0 0.59304,1.30457 2.13479,2.96496c1.5418,1.66039 3.0835,2.96496 3.32072,2.96496c0.35576,0 -0.59299,-1.30457 -2.13479,-2.96496c-1.5418,-1.66039 -3.08355,-2.96496 -3.32072,-2.96496zM137.27646,261.56047c-0.59293,0.00003 -0.35569,0.59301 0.59304,1.18598c0.94876,0.59299 2.37192,1.18598 2.96491,1.18598c0.71158,0 0.35576,-0.59304 -0.59299,-1.18598c-0.94873,-0.59298 -2.25332,-1.18595 -2.96491,-1.18598zM256.70443,153.39929c-0.94876,-0.94876 -1.06734,-0.4744 -0.59299,1.5418c0.4744,1.5418 0.94881,2.13474 1.30462,1.18598c0.23718,-0.83017 -0.11864,-2.13479 -0.71163,-2.72778zM303.07621,312.08309c-1.66039,-0.71158 -1.77892,-0.59299 -0.71158,0.59299c0.83017,0.83017 1.77897,1.18598 2.13479,0.83017c0.35576,-0.35576 -0.23718,-1.06734 -1.42321,-1.42316zM263.70174,130.74707c-1.18598,-1.06734 -1.30457,-0.94881 -0.59304,0.71158c0.35576,1.18598 1.06734,1.77897 1.42316,1.42316c0.35576,-0.35576 0,-1.30457 -0.83017,-2.13474zM358.10558,169.88436c-0.35576,-0.71158 -0.59304,0.11859 -0.59304,2.13479c0,1.89761 0.23718,2.60914 0.59304,1.42316c0.23718,-1.06734 0.23718,-2.72778 0,-3.55795zM71.45475,54.25152c-1.66039,0 -2.25333,0.23718 -1.42316,0.59304c0.71158,0.23718 2.13479,0.23718 2.96496,0c0.71158,-0.35576 0.11859,-0.59304 -1.5418,-0.59304zM326.43996,128.96815c-1.66034,0 -2.25333,0.23718 -1.42316,0.59299c0.71158,0.23718 2.13479,0.23718 2.96496,0c0.71158,-0.35576 0.11859,-0.59299 -1.5418,-0.59299zM267.85263,129.08674c-0.35576,-0.4744 -0.71163,0.23713 -0.59304,1.54175c0,1.30457 0.35576,1.66039 0.71163,0.71163c0.35576,-0.83017 0.23718,-1.89756 -0.11859,-2.25333zM274.96853,201.4314c-0.35576,-0.4744 -0.71158,0.23718 -0.59299,1.5418c0,1.30457 0.35576,1.66034 0.71158,0.71158c0.35576,-0.83017 0.23718,-1.89756 -0.11859,-2.25333z" fill="url(#color-1)"/><path d="" fill="url(#color-2)"/><path d="" fill="url(#color-3)"/><path d="M274.61272,140.70934c3.67654,-0.11859 6.76008,0.35576 6.76008,0.94876c0,0.94876 -9.36923,0.59304 -12.45277,-0.4744c-0.59299,-0.23718 1.89761,-0.4744 5.69274,-0.4744z" fill="url(#color-4)"/><path d="M296.5533,154.70386c1.42316,0.83017 3.55795,1.18598 4.74388,0.83017c1.06734,-0.35576 2.84637,-0.11859 3.79513,0.59299c1.42316,0.94876 1.06734,1.06734 -1.18598,0.4744c-2.4905,-0.59299 -2.60914,-0.4744 -0.83022,0.59304c1.06734,0.71158 3.20213,0.94876 4.50671,0.59299c1.77892,-0.59299 2.25333,-0.4744 1.77892,0.4744c-1.18603,1.77897 0.83022,1.66039 2.72778,-0.23718c1.30462,-1.18598 1.54175,-1.06734 0.94876,0.59299c-0.83017,2.25333 0.35576,2.84637 2.25333,0.94876c0.71158,-0.71158 1.77892,-0.71158 2.84637,0c1.42321,0.94876 1.42321,1.18598 -0.59299,1.30457c-1.30462,0 0,0.71158 2.96491,1.54175c3.43936,1.06734 7.23444,3.43936 10.6738,6.76008c2.96496,2.84637 7.47166,7.1159 10.19944,9.36923c2.60914,2.25333 3.91371,3.55795 2.96496,2.84637c-1.06739,-0.71158 -3.20213,-2.0162 -4.86252,-2.72778l-2.96496,-1.42316l2.96496,2.72778c3.91371,3.55795 7.70884,8.06465 6.76008,8.06465c-0.35576,0 -1.42316,-0.71163 -2.25333,-1.5418c-0.83017,-0.71158 -4.74388,-3.79513 -8.6577,-6.6415c-3.91371,-2.84637 -9.01341,-6.99726 -11.26679,-9.25059c-2.37192,-2.25333 -9.36928,-6.40427 -16.01072,-9.36923c-6.52286,-2.96496 -12.33423,-5.92992 -13.04581,-6.6415c-0.71158,-0.71158 0,-0.59299 1.5418,0.11859z" fill="url(#color-5)"/><path d="M346.8388,184.47187c0.35576,0 1.54175,1.06734 2.72778,2.37197c1.18603,1.30457 1.89756,2.37192 1.54175,2.37192c-0.35576,0 -1.54175,-1.06734 -2.72778,-2.37192c-1.18603,-1.30457 -1.89756,-2.37197 -1.54175,-2.37197z" fill="url(#color-6)"/><path d="M349.09212,166.68223c1.66034,0 1.30457,0.83017 -0.83017,1.66034c-0.94876,0.35576 -1.42321,0.23718 -1.06739,-0.4744c0.35576,-0.71158 1.18603,-1.18598 1.89761,-1.18598z" fill="url(#color-7)"/><path d="M93.63252,7.7612c1.18598,0 8.65765,6.28568 8.18324,6.87867c-0.35576,0.23718 0.35576,1.77892 1.5418,3.43931c2.13474,2.60914 2.96496,6.04845 6.16709,27.27751c1.18598,8.42042 4.38812,14.58756 7.35302,14.58756c0.83017,0.11859 3.20213,2.49055 5.45546,5.45546c3.67654,5.0997 3.79513,5.45546 1.18598,4.62529c-4.74388,-1.5418 -14.94333,-9.84358 -15.65491,-12.68995c-0.35576,-1.5418 -0.94876,-8.06465 -1.42316,-14.58751c-1.06734,-15.65491 -3.20213,-22.2964 -9.48781,-28.58208c-2.84637,-2.72778 -4.86252,-5.33687 -4.38812,-5.69269c0.35576,-0.35576 0.83017,-0.71163 1.06734,-0.71163z" fill="url(#color-8)"/><path d="M163.36799,17.24902c1.5418,0 0.59299,1.06734 -2.96496,3.08355c-9.84363,5.5741 -16.60366,13.63876 -16.60366,19.80585c0,3.08355 -2.96496,7.70889 -4.15094,6.52291c-1.18598,-1.18598 2.84637,-11.1482 6.76008,-16.48507c1.77897,-2.4905 5.81133,-6.40432 8.89487,-8.77623c3.20213,-2.25333 6.76008,-4.15094 8.06465,-4.15094z" fill="url(#color-9)"/><path d="M159.45428,24.36491c3.79513,0 4.38812,1.89756 0.94876,2.96496c-1.30457,0.35576 -2.37192,1.18603 -2.37192,1.77897c0,0.59299 -2.37197,3.32072 -5.21829,6.16704c-5.0997,4.86252 -6.40427,8.06465 -6.6415,16.01072c0,0.83017 -1.42316,1.5418 -3.20213,1.66039c-3.08355,0.11859 -3.08355,0.11859 0.83017,1.30457c3.67654,1.06734 3.91371,1.30457 1.66039,2.13474c-1.42316,0.59299 -3.67654,3.32072 -5.0997,6.16709l-2.4905,5.0997l-0.23718,-4.74388c0,-2.60914 -0.23718,-5.5741 -0.35576,-6.52291c-0.11859,-0.94876 0.35576,-2.37192 0.94876,-3.20208c0.59299,-0.83017 0.71158,-2.0162 0.35576,-2.60914c-0.4744,-0.71158 0.23718,-1.77897 1.5418,-2.37197c1.66039,-0.94876 2.37192,-0.94876 2.72778,0.11859c0.35576,0.83017 1.42316,-2.25333 2.60914,-6.76008c1.5418,-6.40427 3.0835,-9.36923 6.40427,-12.80854c2.96496,-2.96496 5.33692,-4.38812 7.59025,-4.38812zM155.54056,29.22738c-0.94876,-0.11859 -2.84637,0.71158 -4.15094,1.77897c-2.25333,1.77897 -2.25333,1.77892 0.11859,0.71158c1.30457,-0.59299 3.20213,-1.42316 4.15094,-1.77892c1.5418,-0.59299 1.5418,-0.71158 -0.11859,-0.71158z" fill="url(#color-10)"/><path d="M133.8372,57.57224c-0.83017,2.84637 -1.77897,4.62529 -2.13479,4.0323c-0.35576,-0.59299 0.11859,-3.08355 1.06734,-5.5741c2.37192,-5.92992 3.08355,-5.0997 1.06739,1.5418z" fill="url(#color-11)"/><path d="M127.67006,65.28113c3.08355,2.0162 3.20213,2.01615 4.86252,-0.11859c1.66039,-2.13474 1.66034,-2.13479 1.77892,0.4744c0,1.77897 -0.47445,2.4905 -1.42316,1.89761c-0.94876,-0.59299 -1.06734,-0.23718 -0.59299,1.18598c0.71158,1.77897 0.23718,1.66034 -2.72778,-0.47445c-1.89761,-1.30457 -3.79513,-3.08355 -4.26953,-3.79513c-0.4744,-0.59299 0.71158,-0.23718 2.37192,0.83022z" fill="url(#color-12)"/><path d="M143.91796,69.43207c2.0162,0 6.6415,4.38812 5.5741,5.33687c-0.35576,0.35576 -1.5418,-0.4744 -2.72778,-1.77897c-2.37192,-2.60914 -5.21829,-3.32072 -3.08355,-0.83017c0.71158,0.94876 0.83017,2.0162 0.35576,2.49055c-0.4744,0.4744 -0.23718,0.71158 0.59299,0.4744c0.71158,-0.23718 1.30457,0 1.42316,0.4744c0.11859,1.06734 0,1.06734 -4.62529,0.11859c-4.74388,-0.94876 -5.33687,-2.13479 -2.13474,-4.38812c1.42316,-1.06734 3.5579,-1.89756 4.62529,-1.89756z" fill="url(#color-13)"/><path d="M134.78596,77.73385c0.23718,0 0.71158,0.83022 1.18598,1.77897c0.35576,0.94876 0.11859,1.77897 -0.4744,1.77897c-0.71158,0 -1.18603,-0.83022 -1.18603,-1.77897c0,-0.94876 0.23718,-1.77897 0.4744,-1.77897z" fill="url(#color-14)"/><path d="M273.62181,84.29657c-0.19021,-0.13807 -0.18022,-0.26533 0.00675,-0.35871c-0.00284,0.11955 -0.00507,0.23915 -0.00675,0.35871z" fill="url(#color-15)"/><path d="M162.65641,89.59368c0.71158,0 1.30457,0.47445 1.30457,1.18598c0,0.59299 -0.23718,1.18598 -0.4744,1.18598c-0.35576,0 -0.94876,-0.59299 -1.30457,-1.18598c-0.35576,-0.71158 -0.11859,-1.18598 0.4744,-1.18598z" fill="url(#color-16)"/><path d="M169.17932,95.04914c1.18598,2.96496 0.83017,4.0323 -1.06739,3.32072c-0.94876,-0.4744 -1.77892,-1.77892 -1.77892,-2.96491c0,-2.72778 1.89761,-2.96496 2.84637,-0.35576z" fill="url(#color-17)"/><path d="M181.03905,99.55585c1.30457,0.35576 3.55795,0.71158 4.86252,0.83017c1.30457,0.11859 0.4744,0.59299 -1.77892,0.94876c-4.74388,0.94876 -7.47166,0.35576 -6.40432,-1.30457c0.4744,-0.59299 1.89756,-0.83017 3.32072,-0.4744z" fill="url(#color-18)"/><path d="M193.01741,102.63939c-0.4744,0.83017 0.23718,1.06734 2.13479,0.59299c1.66039,-0.4744 3.32072,-0.23718 3.67654,0.35576c0.4744,0.71158 -0.35576,0.94876 -1.89761,0.59299c-2.25333,-0.4744 -2.37192,-0.35576 -0.94876,0.71163c2.37192,1.66039 0.83017,1.66039 -2.96496,-0.11859c-2.13474,-0.94876 -2.60914,-1.66039 -1.54175,-2.37197c2.0162,-1.18598 2.37192,-1.18598 1.54175,0.23718z" fill="url(#color-19)"/><path d="M179.37871,104.41837c1.30457,1.5418 1.18598,1.66034 -0.47445,1.06734c-1.06734,-0.35576 -1.89756,-1.18603 -1.89756,-1.77897c0,-1.5418 0.71158,-1.30457 2.37197,0.71158z" fill="url(#color-20)"/><path d="M213.77207,105.12995c3.67654,-0.11859 11.85978,3.55795 14.11311,6.16709c2.0162,2.4905 1.18598,2.4905 -4.15094,0.23718c-2.37192,-0.94876 -4.86252,-1.42316 -5.69269,-0.94876c-0.71158,0.35576 -0.83017,0.23718 -0.35576,-0.23718c0.4744,-0.59299 -0.83022,-2.01615 -2.96496,-3.20208c-3.67654,-1.89761 -3.79513,-2.0162 -0.94876,-2.0162z" fill="url(#color-21)"/><path d="M217.80442,112.2458c1.30457,-0.11859 2.0162,0.23718 1.5418,0.59304c-0.35576,0.35576 -1.42321,0.4744 -2.25338,0.11859c-0.94876,-0.35576 -0.59299,-0.71163 0.71163,-0.71163z" fill="url(#color-22)"/><path d="M284.21912,127.54494c0.35576,0 0.94876,0.47445 1.30457,1.18598c0.35576,0.59299 0.11854,1.18598 -0.47445,1.18598c-0.71158,0 -1.30457,-0.59299 -1.30457,-1.18598c0,-0.71158 0.23718,-1.18598 0.4744,-1.18598z" fill="url(#color-23)"/><path d="" fill="url(#color-24)"/><path d="M111.5408,263.93239c0.40845,0 1.2209,0.16062 2.26576,0.42566c-0.89708,-0.06268 -1.79788,-0.14516 -2.70904,-0.26716c0.09172,-0.10246 0.23948,-0.1585 0.44329,-0.1585z" fill="url(#color-25)"/><path d="" fill="url(#color-26)"/><path d="" fill="url(#color-27)"/><path d="M196.45678,269.98089c1.30457,-0.11859 2.0162,0.23718 1.5418,0.59299c-0.35576,0.35576 -1.42316,0.4744 -2.25333,0.11859c-0.94876,-0.35576 -0.59304,-0.71158 0.71158,-0.71158z" fill="url(#color-28)"/><path d="" fill="url(#color-29)"/><path d="" fill="url(#color-30)"/><path d="" fill="url(#color-31)"/><path d="" fill="url(#color-32)"/><path d="" fill="url(#color-33)"/><path d="" fill="url(#color-34)"/><path d="" fill="url(#color-35)"/><path d="" fill="url(#color-36)"/><path d="" fill="url(#color-37)"/><path d="" fill="url(#color-38)"/><path d="" fill="url(#color-39)"/><path d="" fill="url(#color-40)"/><path d="" fill="url(#color-41)"/><path d="" fill="url(#color-42)"/><path d="M216.14403,307.22057c3.55795,0.23718 6.99726,0.4744 7.59025,0.59299c0.4744,0 0.71158,0.71158 0.35576,1.66034c-0.35576,0.94876 0.11859,2.0162 1.18598,2.37197c1.06734,0.4744 1.54175,1.06734 1.06734,1.5418c-0.35576,0.35576 -2.96496,-0.35576 -5.69274,-1.66039c-2.84637,-1.30457 -6.40427,-3.08355 -8.06465,-3.79513c-2.4905,-1.06734 -1.89756,-1.18598 3.55795,-0.71158z" fill="url(#color-43)"/></g></g></g></svg>